# Blender v3.1.2 OBJ File: ''
# www.blender.org
mtllib diamond.mtl
o Cube_Cube.001
v -1.534663 -1.298470 -0.877293
v 1.548834 -1.298470 -0.877293
v -1.534663 -1.298470 0.002794
v 1.548834 -1.298470 0.002794
v 0.000000 -1.298470 -1.778157
v 0.000000 -1.298470 0.002794
v -1.534663 -1.298470 0.877293
v 1.548834 -1.298470 0.877293
v -1.534663 -1.298470 -0.002794
v 1.548834 -1.298470 -0.002794
v 0.000000 -1.298470 1.778157
v 0.000000 -1.298470 -0.002794
v 0.004710 1.104427 -0.005385
v 0.000062 1.104427 -0.002657
v 0.009400 1.104427 0.000008
v 0.009400 1.104427 -0.002657
v 0.000062 1.104427 0.000008
v 0.004710 1.104427 0.000008
v 0.004710 1.104427 0.005385
v 0.000062 1.104427 0.002657
v 0.009400 1.104427 -0.000008
v 0.009400 1.104427 0.002657
v 0.000062 1.104427 -0.000008
v 0.004710 1.104427 -0.000008
v 0.001073 -1.922560 -1.374422
v -1.185141 -1.922560 -0.678101
v 1.198240 -1.922560 0.002160
v 1.198240 -1.922560 -0.678101
v -1.185141 -1.922560 0.002160
v 0.001073 -1.922560 0.002160
v 0.001073 -1.922560 1.374422
v -1.185141 -1.922560 0.678101
v 1.198240 -1.922560 -0.002160
v 1.198240 -1.922560 0.678101
v -1.185141 -1.922560 -0.002160
v 0.001073 -1.922560 -0.002160
vt 0.250000 0.625269
vt 0.125000 0.625269
vt 0.125000 0.625269
vt 0.250000 0.625269
vt 0.125000 0.625269
vt 0.250000 0.625269
vt 0.250000 0.625269
vt 0.125000 0.625269
vt 0.125000 0.500000
vt 0.125000 0.500000
vt 0.125000 0.500000
vt 0.125000 0.500000
vt 0.250000 0.500000
vt 0.375000 0.500000
vt 0.375000 0.625269
vt 0.250000 0.625269
vt 0.125000 0.500000
vt 0.125000 0.625269
vt 0.250000 0.500000
vt 0.250000 0.625269
vt 0.375000 0.625269
vt 0.375000 0.500000
vt 0.125000 0.500000
vt 0.125000 0.625269
vt 0.250000 0.500000
vt 0.250000 0.500000
vt 0.375000 0.500000
vt 0.375000 0.500000
vt 0.375000 0.625269
vt 0.375000 0.625269
vt 0.250000 0.500000
vt 0.375000 0.625269
vt 0.375000 0.500000
vt 0.250000 0.500000
vt 0.375000 0.500000
vt 0.375000 0.625269
vn -0.0000 0.0010 1.0000
vn -0.0000 0.0010 -1.0000
vn 0.8725 0.4886 0.0000
vn 0.0000 -1.0000 0.0000
vn 0.8428 -0.5383 0.0000
vn -0.0000 -0.0012 -1.0000
vn -0.0000 -0.0012 1.0000
vn 0.4269 -0.5374 0.7273
vn 0.4269 -0.5374 -0.7273
vn -0.4241 -0.5371 0.7291
vn -0.4241 -0.5371 -0.7291
vn -0.8420 -0.5394 0.0000
vn 0.0000 1.0000 0.0000
vn 0.4419 0.4878 0.7528
vn 0.4419 0.4878 -0.7528
vn -0.4390 0.4875 0.7547
vn -0.4390 0.4875 -0.7547
vn -0.8718 0.4898 0.0000
usemtl None
s off
f 12/1/1 9/2/1 35/3/1 36/4/1
f 3/5/2 6/6/2 30/7/2 29/8/2
f 9/2/3 7/9/3 32/10/3 35/3/3
f 1/11/3 3/5/3 29/8/3 26/12/3
f 13/13/4 16/14/4 15/15/4 18/16/4
f 14/17/4 13/13/4 18/16/4 17/18/4
f 19/19/4 24/20/4 21/21/4 22/22/4
f 20/23/4 23/24/4 24/20/4 19/19/4
f 3/5/5 1/11/5 14/17/5 17/18/5
f 7/9/5 9/2/5 23/24/5 20/23/5
f 6/6/6 3/5/6 17/18/6 18/16/6
f 9/2/7 12/1/7 24/20/7 23/24/7
f 1/11/8 5/25/8 13/13/8 14/17/8
f 11/26/9 7/9/9 20/23/9 19/19/9
f 5/25/10 2/27/10 16/14/10 13/13/10
f 8/28/11 11/26/11 19/19/11 22/22/11
f 2/27/12 4/29/12 15/15/12 16/14/12
f 10/30/12 8/28/12 22/22/12 21/21/12
f 4/29/6 6/6/6 18/16/6 15/15/6
f 12/1/7 10/30/7 21/21/7 24/20/7
f 25/31/13 30/7/13 27/32/13 28/33/13
f 26/12/13 29/8/13 30/7/13 25/31/13
f 31/34/13 34/35/13 33/36/13 36/4/13
f 32/10/13 31/34/13 36/4/13 35/3/13
f 5/25/14 1/11/14 26/12/14 25/31/14
f 7/9/15 11/26/15 31/34/15 32/10/15
f 2/27/16 5/25/16 25/31/16 28/33/16
f 11/26/17 8/28/17 34/35/17 31/34/17
f 4/29/18 2/27/18 28/33/18 27/32/18
f 8/28/18 10/30/18 33/36/18 34/35/18
f 6/6/2 4/29/2 27/32/2 30/7/2
f 10/30/1 12/1/1 36/4/1 33/36/1
o Cube.001_Cube.002
v -1.534663 3.480145 0.877293
v 1.548834 3.480145 0.877293
v -1.534663 3.480145 -0.002794
v 1.548834 3.480145 -0.002794
v 0.000000 3.480145 1.778157
v 0.000000 3.480145 -0.002794
v -1.534663 3.480145 -0.877293
v 1.548834 3.480145 -0.877293
v -1.534663 3.480145 0.002794
v 1.548834 3.480145 0.002794
v 0.000000 3.480145 -1.778157
v 0.000000 3.480145 0.002794
v 0.004710 1.077248 0.005385
v 0.000062 1.077248 0.002657
v 0.009400 1.077248 -0.000009
v 0.009400 1.077248 0.002657
v 0.000062 1.077248 -0.000009
v 0.004710 1.077248 -0.000009
v 0.004710 1.077248 -0.005385
v 0.000062 1.077248 -0.002657
v 0.009400 1.077248 0.000008
v 0.009400 1.077248 -0.002657
v 0.000062 1.077248 0.000008
v 0.004710 1.077248 0.000008
v 0.001073 4.104235 1.374422
v -1.185141 4.104235 0.678102
v 1.198240 4.104235 -0.002160
v 1.198240 4.104235 0.678102
v -1.185141 4.104235 -0.002160
v 0.001073 4.104235 -0.002160
v 0.001073 4.104235 -1.374422
v -1.185141 4.104235 -0.678101
v 1.198240 4.104235 0.002160
v 1.198240 4.104235 -0.678101
v -1.185141 4.104235 0.002160
v 0.001073 4.104235 0.002160
vt 0.250000 0.625269
vt 0.125000 0.625269
vt 0.125000 0.625269
vt 0.250000 0.625269
vt 0.125000 0.625269
vt 0.250000 0.625269
vt 0.250000 0.625269
vt 0.125000 0.625269
vt 0.125000 0.500000
vt 0.125000 0.500000
vt 0.125000 0.500000
vt 0.125000 0.500000
vt 0.250000 0.500000
vt 0.375000 0.500000
vt 0.375000 0.625269
vt 0.250000 0.625269
vt 0.125000 0.500000
vt 0.125000 0.625269
vt 0.250000 0.500000
vt 0.250000 0.625269
vt 0.375000 0.625269
vt 0.375000 0.500000
vt 0.125000 0.500000
vt 0.125000 0.625269
vt 0.250000 0.500000
vt 0.250000 0.500000
vt 0.375000 0.500000
vt 0.375000 0.500000
vt 0.375000 0.625269
vt 0.375000 0.625269
vt 0.250000 0.500000
vt 0.375000 0.625269
vt 0.375000 0.500000
vt 0.250000 0.500000
vt 0.375000 0.500000
vt 0.375000 0.625269
vn -0.0000 -0.0010 -1.0000
vn -0.0000 -0.0010 1.0000
vn 0.8725 -0.4886 0.0000
vn 0.0000 1.0000 0.0000
vn 0.8428 0.5383 0.0000
vn -0.0000 0.0012 1.0000
vn -0.0000 0.0012 -1.0000
vn 0.4269 0.5374 -0.7273
vn 0.4269 0.5374 0.7273
vn -0.4241 0.5371 -0.7291
vn -0.4241 0.5371 0.7291
vn -0.8420 0.5394 0.0000
vn 0.0000 -1.0000 -0.0000
vn 0.4419 -0.4878 -0.7528
vn 0.4419 -0.4878 0.7528
vn -0.4390 -0.4875 -0.7547
vn -0.4390 -0.4875 0.7547
vn -0.8718 -0.4898 0.0000
usemtl None
s off
f 48/37/19 45/38/19 71/39/19 72/40/19
f 39/41/20 42/42/20 66/43/20 65/44/20
f 45/38/21 43/45/21 68/46/21 71/39/21
f 37/47/21 39/41/21 65/44/21 62/48/21
f 49/49/22 52/50/22 51/51/22 54/52/22
f 50/53/22 49/49/22 54/52/22 53/54/22
f 55/55/22 60/56/22 57/57/22 58/58/22
f 56/59/22 59/60/22 60/56/22 55/55/22
f 39/41/23 37/47/23 50/53/23 53/54/23
f 43/45/23 45/38/23 59/60/23 56/59/23
f 42/42/24 39/41/24 53/54/24 54/52/24
f 45/38/25 48/37/25 60/56/25 59/60/25
f 37/47/26 41/61/26 49/49/26 50/53/26
f 47/62/27 43/45/27 56/59/27 55/55/27
f 41/61/28 38/63/28 52/50/28 49/49/28
f 44/64/29 47/62/29 55/55/29 58/58/29
f 38/63/30 40/65/30 51/51/30 52/50/30
f 46/66/30 44/64/30 58/58/30 57/57/30
f 40/65/24 42/42/24 54/52/24 51/51/24
f 48/37/25 46/66/25 57/57/25 60/56/25
f 61/67/31 66/43/31 63/68/31 64/69/31
f 62/48/31 65/44/31 66/43/31 61/67/31
f 67/70/31 70/71/31 69/72/31 72/40/31
f 68/46/31 67/70/31 72/40/31 71/39/31
f 41/61/32 37/47/32 62/48/32 61/67/32
f 43/45/33 47/62/33 67/70/33 68/46/33
f 38/63/34 41/61/34 61/67/34 64/69/34
f 47/62/35 44/64/35 70/71/35 67/70/35
f 40/65/36 38/63/36 64/69/36 63/68/36
f 44/64/36 46/66/36 69/72/36 70/71/36
f 42/42/20 40/65/20 63/68/20 66/43/20
f 46/66/19 48/37/19 72/40/19 69/72/19
